<?xml version="1.0" encoding="UTF-8"?>
<svg width="192" height="192" viewBox="0 0 192 192" xmlns="http://www.w3.org/2000/svg">
  <!-- Hintergrund -->
  <rect width="192" height="192" fill="#1B264F" />
  
  <!-- Schachbrett -->
  <rect x="16" y="16" width="160" height="160" fill="#E6D5AC" />
  
  <!-- Schachbrett-Muster -->
  <g fill="#D4AF37">
    <rect x="16" y="16" width="20" height="20" />
    <rect x="56" y="16" width="20" height="20" />
    <rect x="96" y="16" width="20" height="20" />
    <rect x="136" y="16" width="20" height="20" />
    <rect x="36" y="36" width="20" height="20" />
    <rect x="76" y="36" width="20" height="20" />
    <rect x="116" y="36" width="20" height="20" />
    <rect x="156" y="36" width="20" height="20" />
    <rect x="16" y="56" width="20" height="20" />
    <rect x="56" y="56" width="20" height="20" />
    <rect x="96" y="56" width="20" height="20" />
    <rect x="136" y="56" width="20" height="20" />
    <rect x="36" y="76" width="20" height="20" />
    <rect x="76" y="76" width="20" height="20" />
    <rect x="116" y="76" width="20" height="20" />
    <rect x="156" y="76" width="20" height="20" />
    <rect x="16" y="96" width="20" height="20" />
    <rect x="56" y="96" width="20" height="20" />
    <rect x="96" y="96" width="20" height="20" />
    <rect x="136" y="96" width="20" height="20" />
    <rect x="36" y="116" width="20" height="20" />
    <rect x="76" y="116" width="20" height="20" />
    <rect x="116" y="116" width="20" height="20" />
    <rect x="156" y="116" width="20" height="20" />
    <rect x="16" y="136" width="20" height="20" />
    <rect x="56" y="136" width="20" height="20" />
    <rect x="96" y="136" width="20" height="20" />
    <rect x="136" y="136" width="20" height="20" />
    <rect x="36" y="156" width="20" height="20" />
    <rect x="76" y="156" width="20" height="20" />
    <rect x="116" y="156" width="20" height="20" />
    <rect x="156" y="156" width="20" height="20" />
  </g>
  
  <!-- König (Pixel-Art) -->
  <g fill="#D4AF37">
    <!-- Königskrone -->
    <rect x="88" y="48" width="16" height="4" />
    <rect x="84" y="52" width="24" height="4" />
    <rect x="80" y="56" width="32" height="4" />
    <rect x="84" y="60" width="24" height="4" />
    <rect x="88" y="64" width="16" height="4" />
    
    <!-- Königskörper -->
    <rect x="92" y="68" width="8" height="16" />
    <rect x="88" y="84" width="16" height="8" />
    <rect x="92" y="92" width="8" height="16" />
    <rect x="88" y="108" width="16" height="8" />
  </g>
  
  <!-- Shot-Glas (für Verlierer-Fluch) -->
  <g fill="#30D5C8">
    <rect x="144" y="48" width="8" height="16" />
    <rect x="140" y="64" width="16" height="8" />
    <rect x="144" y="72" width="8" height="16" />
    <rect x="140" y="88" width="16" height="8" />
    <rect x="144" y="96" width="8" height="16" />
    <rect x="140" y="112" width="16" height="8" />
  </g>
  
  <!-- Text "G" -->
  <text x="40" y="180" font-family="Arial" font-size="24" font-weight="bold" fill="#D4AF37">G</text>
</svg> 