<?xml version="1.0" encoding="UTF-8"?>
<svg width="512" height="512" viewBox="0 0 512 512" xmlns="http://www.w3.org/2000/svg">
  <!-- Hintergrund -->
  <rect width="512" height="512" fill="#1B264F" />
  
  <!-- Schachbrett -->
  <rect x="42" y="42" width="428" height="428" fill="#E6D5AC" />
  
  <!-- Schachbrett-Muster -->
  <g fill="#D4AF37">
    <rect x="42" y="42" width="53" height="53" />
    <rect x="149" y="42" width="53" height="53" />
    <rect x="256" y="42" width="53" height="53" />
    <rect x="363" y="42" width="53" height="53" />
    <rect x="96" y="96" width="53" height="53" />
    <rect x="203" y="96" width="53" height="53" />
    <rect x="310" y="96" width="53" height="53" />
    <rect x="417" y="96" width="53" height="53" />
    <rect x="42" y="149" width="53" height="53" />
    <rect x="149" y="149" width="53" height="53" />
    <rect x="256" y="149" width="53" height="53" />
    <rect x="363" y="149" width="53" height="53" />
    <rect x="96" y="203" width="53" height="53" />
    <rect x="203" y="203" width="53" height="53" />
    <rect x="310" y="203" width="53" height="53" />
    <rect x="417" y="203" width="53" height="53" />
    <rect x="42" y="256" width="53" height="53" />
    <rect x="149" y="256" width="53" height="53" />
    <rect x="256" y="256" width="53" height="53" />
    <rect x="363" y="256" width="53" height="53" />
    <rect x="96" y="310" width="53" height="53" />
    <rect x="203" y="310" width="53" height="53" />
    <rect x="310" y="310" width="53" height="53" />
    <rect x="417" y="310" width="53" height="53" />
    <rect x="42" y="363" width="53" height="53" />
    <rect x="149" y="363" width="53" height="53" />
    <rect x="256" y="363" width="53" height="53" />
    <rect x="363" y="363" width="53" height="53" />
    <rect x="96" y="417" width="53" height="53" />
    <rect x="203" y="417" width="53" height="53" />
    <rect x="310" y="417" width="53" height="53" />
    <rect x="417" y="417" width="53" height="53" />
  </g>
  
  <!-- König (Pixel-Art) -->
  <g fill="#D4AF37">
    <!-- Königskrone -->
    <rect x="235" y="128" width="42" height="10" />
    <rect x="224" y="138" width="64" height="10" />
    <rect x="213" y="148" width="86" height="10" />
    <rect x="224" y="158" width="64" height="10" />
    <rect x="235" y="168" width="42" height="10" />
    
    <!-- Königskörper -->
    <rect x="245" y="178" width="22" height="42" />
    <rect x="235" y="220" width="42" height="22" />
    <rect x="245" y="242" width="22" height="42" />
    <rect x="235" y="284" width="42" height="22" />
  </g>
  
  <!-- Shot-Glas (für Verlierer-Fluch) -->
  <g fill="#30D5C8">
    <rect x="384" y="128" width="22" height="42" />
    <rect x="373" y="170" width="42" height="22" />
    <rect x="384" y="192" width="22" height="42" />
    <rect x="373" y="234" width="42" height="22" />
    <rect x="384" y="256" width="22" height="42" />
    <rect x="373" y="298" width="42" height="22" />
  </g>
  
  <!-- Text "G" -->
  <text x="106" y="480" font-family="Arial" font-size="64" font-weight="bold" fill="#D4AF37">G</text>
</svg> 